<svg width="1085" height="337" viewBox="0 0 1085 337" fill="none" xmlns="http://www.w3.org/2000/svg">
<g clip-path="url(#clip0)">
<path d="M-392.52 314.249C-205.498 171.509 61.8267 207.406 204.567 394.428" stroke="#EBEBEB" stroke-opacity="0.2" stroke-width="5" stroke-linecap="round"/>
<path d="M-217.61 1175.3C70.8333 1221.48 342.106 1025.1 388.295 736.655C434.484 448.212 238.098 176.939 -50.3451 130.75" stroke="#EBEBEB" stroke-opacity="0.2" stroke-width="5" stroke-linecap="round"/>
<path d="M-403.815 991.503C-590.753 842.476 -621.485 570.123 -472.458 383.185C-323.431 196.248 -51.0782 165.515 135.86 314.542" stroke="#EBEBEB" stroke-opacity="0.2" stroke-width="5" stroke-linecap="round"/>
<circle cx="-133.978" cy="653.022" r="557.428" transform="rotate(69.0976 -133.978 653.022)" stroke="#EBEBEB" stroke-opacity="0.2" stroke-width="5" stroke-linecap="round"/>
<path d="M36.0494 1098.22C281.927 1004.32 405.127 728.874 311.224 482.996C217.321 237.118 -58.1266 113.918 -304.005 207.821" stroke="#EBEBEB" stroke-opacity="0.2" stroke-width="5" stroke-linecap="round"/>
<path d="M-665.866 856.156C-778.054 562.402 -630.865 233.321 -337.111 121.134C-43.3572 8.94607 285.724 156.135 397.911 449.889" stroke="#EBEBEB" stroke-opacity="0.2" stroke-width="5" stroke-linecap="round"/>
<path d="M47.4002 1127.95C309.693 1027.77 441.117 733.937 340.945 471.645C240.773 209.352 -53.0629 77.9275 -315.355 178.1" stroke="#EBEBEB" stroke-opacity="0.2" stroke-width="5" stroke-linecap="round"/>
<path d="M47.4002 1127.95C309.693 1027.77 441.117 733.937 340.945 471.645C240.773 209.352 -53.0629 77.9275 -315.355 178.1" stroke="#EBEBEB" stroke-opacity="0.2" stroke-width="5" stroke-linecap="round"/>
</g>
<defs>
<clipPath id="clip0">
<rect width="1085" height="337" fill="white"/>
</clipPath>
</defs>
</svg>
