<svg width="1440" height="450" viewBox="0 0 1440 450" fill="none" xmlns="http://www.w3.org/2000/svg">
<g clip-path="url(#clip0)">
<path d="M58.7392 304.553C51.3342 301.921 48.3478 305.845 47.5767 308.015C46.8056 310.184 47.9446 315.574 54.0509 317.745C59.163 319.561 191.041 358.555 233.845 371.203C234.462 371.385 234.763 370.488 234.161 370.262C192.404 354.595 63.8205 306.359 58.7392 304.553Z" fill="#EBEBEB"/>
<path d="M87.2627 420.63C95.556 423.578 98.0043 419.463 98.7754 417.293C99.5464 415.123 100.244 410.386 91.9511 407.439C85.009 404.972 -61.5265 360.766 -109.091 346.427C-109.709 346.241 -110.009 347.144 -109.405 347.369C-62.6872 364.798 81.5689 418.607 87.2627 420.63Z" fill="#EBEBEB"/>
<path d="M332.337 382.495C319.688 378 317.948 382.897 317.177 385.067C316.406 387.236 317.218 391.98 327.649 395.687C335.606 398.515 521.91 458.188 609.806 486.325C611.049 486.723 611.677 484.894 610.451 484.444C523.83 452.66 340.247 385.306 332.337 382.495Z" fill="#EBEBEB"/>
<path d="M306.489 341.086C319.138 345.581 340.748 349.903 342.246 342.006C343.745 334.109 323.653 325.848 313.222 322.141C304.821 319.155 96.6379 255.635 15.9412 231.029C14.7038 230.652 14.0914 232.461 15.3038 232.912C94.3307 262.311 298.139 338.118 306.489 341.086Z" fill="#EBEBEB"/>
</g>
<defs>
<clipPath id="clip0">
<rect width="1440" height="450" fill="white"/>
</clipPath>
</defs>
</svg>
